<mxfile host="app.diagrams.net" modified="2020-08-18T00:58:22.852Z" agent="5.0 (Windows NT 6.1; Win64; x64) AppleWebKit/537.36 (KHTML, like Gecko) Chrome/84.0.4147.125 Safari/537.36" etag="V8w_MB7-IEby7r4Hhy9w" version="13.6.2" type="github">
  <diagram id="BARMFno0I9ZG4wmwtt1Q" name="第 1 页">
    <mxGraphModel dx="1422" dy="759" grid="1" gridSize="10" guides="1" tooltips="1" connect="1" arrows="1" fold="1" page="1" pageScale="1" pageWidth="827" pageHeight="1169" math="0" shadow="0">
      <root>
        <mxCell id="0" />
        <mxCell id="1" parent="0" />
      </root>
    </mxGraphModel>
  </diagram>
</mxfile>
